<?xml version="1.0"?>
<svg version="1.1" xmlns="http://www.w3.org/2000/svg" width="200" height="40" style=""><path fill="#1391eb" d="M15.953125,23.640625q0-0.15625,0.2421875-0.265625t0.578125-0.15625t0.640625-0.078125t0.4609375-0.03125q0.0625-0.421875,0.1796875-1.140625t0.2890625-1.5390625t0.4296875-1.6484375t0.625-1.5t0.8671875-1.1015625t1.171875-0.4296875l-0.03125,0q0.21875-0.03125,0.4296875-0.046875t0.4296875-0.015625q0.515625,0,1.1171875,0.203125t1.1171875,0.5703125t0.8671875,0.8828125t0.3515625,1.09375q0,0.453125-0.2265625,0.9765625t-0.7890625,0.5234375q-0.1875,0-0.3828125-0.09375t-0.3671875-0.203125q0.0625-0.359375,0.0625-0.71875q0-0.1875-0.015625-0.359375q-0.046875-0.546875-0.234375-0.9609375t-0.5390625-0.65625t-0.8359375-0.1796875q-0.640625,0.09375-0.9609375,0.78125t-0.4453125,1.6328125t-0.15625,1.921875t-0.125,1.5859375q0.734375,0.0625,1.2421875,0.0625l1.2734375,0q0.125,0,0.4296875,0.015625t0.59375,0.0625t0.515625,0.1640625t0.2265625,0.3046875q0,0.15625-0.125,0.2734375t-0.3046875,0.1640625t-0.375,0.0625t-0.3203125,0.015625q-0.546875,0-0.9296875-0.046875t-0.734375-0.0859375t-0.734375-0.0390625t-0.8984375,0.109375q-0.15625,1.734375-0.25,3.4375t-0.09375,3.4375q0,2.71875,0.171875,5.328125t0.625,5.296875q0.0625,0.25,0.109375,0.5703125t0.046875,0.6171875q0,0.28125-0.171875,0.4609375t-0.4296875,0.2578125t-0.53125,0.109375t-0.4921875,0.03125q-0.890625,0-1.25-0.2734375t-0.515625-1.1015625q-0.390625-2.203125-0.5-4.4453125t-0.109375-4.5234375q0-2.234375,0.1640625-4.4609375t0.4140625-4.4296875q-0.125,0-0.4296875,0.015625t-0.609375,0t-0.53125-0.109375t-0.2265625-0.328125z M27.16671875,30.46875q0-0.890625,0.2265625-1.8359375t0.71875-1.703125t1.2421875-1.234375t1.8125-0.4765625q0.796875,0,1.6796875,0.2734375t1.6171875,0.78125t1.1953125,1.2421875t0.4609375,1.640625q0,1.09375-0.3984375,2.078125t-1.1171875,1.7578125t-1.6796875,1.21875t-2.0859375,0.4453125q-0.921875,0-1.609375-0.3359375t-1.1484375-0.8984375t-0.6875-1.328125t-0.2265625-1.625z M29.46359375,30.4375q0,0.28125,0.0859375,0.828125t0.2578125,1.0703125t0.4453125,0.90625t0.6640625,0.3515625q0.828125-0.09375,1.3671875-0.5390625t0.875-1.0859375t0.46875-1.390625t0.1328125-1.421875q0-0.859375-0.3359375-1.4375t-1.1015625-0.9375q0,0.03125,0.03125,0.03125t0.03125-0.03125l-0.390625-0.09375q-0.15625-0.0625-0.3828125-0.140625t-0.4453125-0.34375q-0.609375,0.21875-0.9453125,0.5625t-0.5078125,0.8359375t-0.2109375,1.1796875t-0.0390625,1.65625z M39.0053125,25.375q0-0.3125,0.40625-0.3984375t0.625-0.0859375q1.375,0,2.703125-0.234375t2.671875-0.234375q0.125,0,0.4140625,0.015625t0.546875,0.0625t0.4609375,0.15625t0.203125,0.328125q0,0.390625-0.1875,1.125t-0.5078125,1.6484375t-0.703125,1.9375t-0.765625,1.953125t-0.71875,1.6796875t-0.5390625,1.171875q0.515625,0.09375,1.265625,0.15625t1.421875,0.125t1.125,0.2109375t0.421875,0.3671875q-0.0625,0.359375-0.640625,0.5625q-0.5625,0.203125-1.40625,0.28125q-0.515625,0.046875-1.09375,0.046875q-0.34375,0-0.6875-0.015625q-0.9375-0.046875-1.7578125-0.15625t-1.3671875-0.3046875t-0.546875-0.4140625q0-0.09375,0.2734375-0.765625t0.671875-1.6328125t0.8828125-2.09375t0.9296875-2.1796875t0.78125-1.859375t0.4609375-1.125q-0.921875,0.0625-1.8671875,0.15625t-1.8671875,0.09375q-0.125,0-0.3984375-0.015625t-0.53125-0.078125t-0.46875-0.1796875t-0.2109375-0.3046875z M51.07828125,29.796875q0-1.4375,0.3359375-2.8203125t0.5703125-2.7578125q0.0625-0.359375,0.4921875-0.4453125t0.7265625-0.0859375q0.515625,0,0.828125,0.15625q0.125,0.0625,0.234375,0.140625t0.109375,0.203125q0,1.34375-0.3203125,2.625t-0.3203125,2.71875q0,0.484375,0.0703125,0.9140625t0.1328125,0.8515625l0.09375,0.453125q0,0.125,0.015625,0.21875t0.046875,0.21875q0,0.28125-0.3984375,0.3828125t-0.6953125,0.1015625q-0.453125,0-0.8359375-0.1796875t-0.6015625-0.6171875l-0.21875-0.453125q-0.1875-0.359375-0.1875-0.8046875t-0.078125-0.8203125z M52.07828125,20.390625l0-0.296875q0-0.734375,0.3671875-1.3125t1.1015625-0.578125q0.09375,0,0.1796875,0.015625t0.1796875,0.015625q0.1875,0.03125,0.4921875,0.1484375t0.3046875,0.3671875l0,0.03125q-0.0625,0.125-0.078125,0.2578125t-0.078125,0.2265625l0.03125-0.03125q-0.1875,0.484375-0.3046875,0.78125t-0.2578125,0.4765625t-0.3515625,0.2578125t-0.6015625,0.078125q-0.0625,0-0.21875-0.015625t-0.3359375-0.0625t-0.3046875-0.125t-0.125-0.234375z M57.90125,30.171875q0-1.0625,0.2890625-2.046875t0.8671875-1.7578125t1.4453125-1.234375t2.0078125-0.4609375q0.703125,0,1.5546875,0.2109375t1.6015625,0.625t1.25,1.0546875t0.5,1.46875q0,0.390625-0.1328125,0.59375t-0.5390625,0.203125l-0.171875-0.03125q0.453125,1.21875,0.78125,2.5t0.640625,2.5625q0.125,0.25,0.1875,0.4453125t0.0625,0.3828125q0,0.25-0.140625,0.4140625t-0.3671875,0.2421875t-0.46875,0.109375t-0.4296875,0.03125q-0.671875,0-1.0078125-0.234375t-0.484375-0.640625t-0.1796875-0.9140625t-0.125-1.0234375q-0.1875,0.609375-0.4921875,1.1875t-0.71875,1.0390625t-0.9765625,0.734375t-1.265625,0.2734375q-1.03125,0-1.734375-0.59375t-1.1328125-1.4609375t-0.625-1.8515625t-0.1953125-1.828125z M60.12,29.953125q0,0.578125,0.078125,1.21875t0.2578125,1.265625t0.4609375,1.1796875t0.703125,0.9765625q0.765625-0.828125,1.1328125-2.015625t0.65625-2.2890625t0.65625-1.890625t1.1328125-0.7890625q0.484375,0,0.8125,0.171875q-0.15625-0.390625-0.515625-0.7578125t-0.8046875-0.671875t-0.921875-0.5t-0.8984375-0.1953125q-0.125,0-0.2890625,0.0390625t-0.2578125,0.0078125q-0.640625,0.1875-1.0546875,0.6484375t-0.671875,1.0859375t-0.3671875,1.28125t-0.109375,1.234375z M77.5315625,36.515625l0.328125-0.390625q-0.0625-2.625-0.140625-5.234375t-0.078125-5.1875q0-3.203125,0.3828125-6.1953125t0.7578125-6.1328125q0.03125-0.1875,0.1796875-0.3046875t0.3671875-0.1953125t0.4453125-0.109375t0.4140625-0.03125q0.25,0,0.625,0.09375t0.75,0.546875q0,0.15625,0.0234375,0.2734375t0.0234375,0.2734375q0,1.1875-0.3203125,2.546875t-0.4296875,2.609375q-0.125,1.53125-0.171875,3.03125t-0.046875,3.046875l0.03125,1.375q0.3125-0.390625,0.890625-1t1.25-1.1796875t1.34375-0.9765625t1.21875-0.40625q0.828125,0,1.1484375,0.46875t0.3203125,1.234375q0,0.703125-0.3046875,1.46875t-0.796875,1.4921875t-1.1171875,1.3046875t-1.234375,0.859375q0.828125,1.03125,1.6953125,1.96875t1.8984375,1.765625l0,0.359375q-0.03125,0.15625-0.1953125,0.234375t-0.359375,0.125t-0.3828125,0.0703125t-0.3125,0.0234375q-0.765625,0-1.4765625-0.453125t-1.328125-1.109375t-1.1640625-1.390625t-1-1.28125q0.09375,1.796875,0.2109375,3.5859375t0.1171875,3.5859375q0,0.21875-0.1953125,0.3671875t-0.453125,0.2265625t-0.5234375,0.109375t-0.4375,0.03125q-0.921875,0-1.3046875-0.3359375t-0.6484375-1.1640625z M80.7346875,29.15625q0.390625,0,0.9296875-0.3359375t1.1171875-0.8359375t1.078125-1.0546875t0.8046875-1.0546875t0.3046875-0.8046875t-0.421875-0.2734375q-0.15625,0-0.640625,0.453125t-1.078125,1.109375t-1.1875,1.421875t-0.90625,1.375z M90.18265625,30.171875q0-1.0625,0.2890625-2.046875t0.8671875-1.7578125t1.4453125-1.234375t2.0078125-0.4609375q0.703125,0,1.5546875,0.2109375t1.6015625,0.625t1.25,1.0546875t0.5,1.46875q0,0.390625-0.1328125,0.59375t-0.5390625,0.203125l-0.171875-0.03125q0.453125,1.21875,0.78125,2.5t0.640625,2.5625q0.125,0.25,0.1875,0.4453125t0.0625,0.3828125q0,0.25-0.140625,0.4140625t-0.3671875,0.2421875t-0.46875,0.109375t-0.4296875,0.03125q-0.671875,0-1.0078125-0.234375t-0.484375-0.640625t-0.1796875-0.9140625t-0.125-1.0234375q-0.1875,0.609375-0.4921875,1.1875t-0.71875,1.0390625t-0.9765625,0.734375t-1.265625,0.2734375q-1.03125,0-1.734375-0.59375t-1.1328125-1.4609375t-0.625-1.8515625t-0.1953125-1.828125z M92.40140625,29.953125q0,0.578125,0.078125,1.21875t0.2578125,1.265625t0.4609375,1.1796875t0.703125,0.9765625q0.765625-0.828125,1.1328125-2.015625t0.65625-2.2890625t0.65625-1.890625t1.1328125-0.7890625q0.484375,0,0.8125,0.171875q-0.15625-0.390625-0.515625-0.7578125t-0.8046875-0.671875t-0.921875-0.5t-0.8984375-0.1953125q-0.125,0-0.2890625,0.0390625t-0.2578125,0.0078125q-0.640625,0.1875-1.0546875,0.6484375t-0.671875,1.0859375t-0.3671875,1.28125t-0.109375,1.234375z M103.724375,26.140625q0-0.640625,0.375-1.1015625t0.9140625-0.75t1.1796875-0.4296875t1.1875-0.140625q0.421875,0,1.125,0.125t1.375,0.375t1.1640625,0.65625t0.4921875,0.953125q0,0.25-0.1875,0.4453125t-0.390625,0.1953125q-0.421875,0-0.765625-0.2734375t-0.7109375-0.578125t-0.8046875-0.578125t-0.984375-0.2734375t-0.9921875,0.3515625t-0.4453125,0.9296875q0,0.953125,0.671875,1.8671875t1.4765625,1.921875t1.4765625,2.1171875t0.671875,2.453125q0,0.578125-0.2421875,0.9765625t-0.640625,0.6484375t-0.8984375,0.3828125t-0.96875,0.1328125q-0.515625,0-1.203125-0.2421875t-1.296875-0.640625t-1.0234375-0.9296875t-0.4140625-1.109375q0-0.28125,0.3984375-0.359375t0.5859375-0.078125q0.09375,0,0.2890625,0.0625t0.3828125,0.140625t0.3359375,0.171875t0.1171875,0.203125q0.15625,0.1875,0.4765625,0.5546875t0.640625,0.59375t0.5625,0.1640625t0.2421875-0.703125q0-1.21875-0.65625-2.2421875t-1.4296875-2t-1.4296875-1.9375t-0.65625-2.0546875z M114.73484375,26.140625q0-0.640625,0.375-1.1015625t0.9140625-0.75t1.1796875-0.4296875t1.1875-0.140625q0.421875,0,1.125,0.125t1.375,0.375t1.1640625,0.65625t0.4921875,0.953125q0,0.25-0.1875,0.4453125t-0.390625,0.1953125q-0.421875,0-0.765625-0.2734375t-0.7109375-0.578125t-0.8046875-0.578125t-0.984375-0.2734375t-0.9921875,0.3515625t-0.4453125,0.9296875q0,0.953125,0.671875,1.8671875t1.4765625,1.921875t1.4765625,2.1171875t0.671875,2.453125q0,0.578125-0.2421875,0.9765625t-0.640625,0.6484375t-0.8984375,0.3828125t-0.96875,0.1328125q-0.515625,0-1.203125-0.2421875t-1.296875-0.640625t-1.0234375-0.9296875t-0.4140625-1.109375q0-0.28125,0.3984375-0.359375t0.5859375-0.078125q0.09375,0,0.2890625,0.0625t0.3828125,0.140625t0.3359375,0.171875t0.1171875,0.203125q0.15625,0.1875,0.4765625,0.5546875t0.640625,0.59375t0.5625,0.1640625t0.2421875-0.703125q0-1.21875-0.65625-2.2421875t-1.4296875-2t-1.4296875-1.9375t-0.65625-2.0546875z M125.7453125,30.171875q0-1.0625,0.2890625-2.046875t0.8671875-1.7578125t1.4453125-1.234375t2.0078125-0.4609375q0.703125,0,1.5546875,0.2109375t1.6015625,0.625t1.25,1.0546875t0.5,1.46875q0,0.390625-0.1328125,0.59375t-0.5390625,0.203125l-0.171875-0.03125q0.453125,1.21875,0.78125,2.5t0.640625,2.5625q0.125,0.25,0.1875,0.4453125t0.0625,0.3828125q0,0.25-0.140625,0.4140625t-0.3671875,0.2421875t-0.46875,0.109375t-0.4296875,0.03125q-0.671875,0-1.0078125-0.234375t-0.484375-0.640625t-0.1796875-0.9140625t-0.125-1.0234375q-0.1875,0.609375-0.4921875,1.1875t-0.71875,1.0390625t-0.9765625,0.734375t-1.265625,0.2734375q-1.03125,0-1.734375-0.59375t-1.1328125-1.4609375t-0.625-1.8515625t-0.1953125-1.828125z M127.9640625,29.953125q0,0.578125,0.078125,1.21875t0.2578125,1.265625t0.4609375,1.1796875t0.703125,0.9765625q0.765625-0.828125,1.1328125-2.015625t0.65625-2.2890625t0.65625-1.890625t1.1328125-0.7890625q0.484375,0,0.8125,0.171875q-0.15625-0.390625-0.515625-0.7578125t-0.8046875-0.671875t-0.921875-0.5t-0.8984375-0.1953125q-0.125,0-0.2890625,0.0390625t-0.2578125,0.0078125q-0.640625,0.1875-1.0546875,0.6484375t-0.671875,1.0859375t-0.3671875,1.28125t-0.109375,1.234375z"/><path fill="#" d=""/></svg>
